<?xml version="1.0" standalone="no"?>
<!DOCTYPE svg PUBLIC "-//W3C//DTD SVG 20010904//EN"
 "http://www.w3.org/TR/2001/REC-SVG-20010904/DTD/svg10.dtd">
<svg version="1.0" xmlns="http://www.w3.org/2000/svg"
 width="445.000000pt" height="445.000000pt" viewBox="0 0 445.000000 445.000000"
 preserveAspectRatio="xMidYMid meet">

<g transform="translate(0.000000,445.000000) scale(0.100000,-0.100000)"
fill="#000000" stroke="none">
<path d="M1880 4401 c-14 -18 -24 -37 -23 -42 4 -13 -27 -79 -37 -79 -6 0 -10
-11 -10 -25 0 -14 -4 -25 -9 -25 -5 0 -12 -7 -15 -16 -3 -8 -2 -13 3 -10 5 3
-1 -14 -12 -39 -11 -24 -25 -41 -30 -38 -6 3 -7 1 -3 -6 4 -6 -2 -31 -13 -54
-11 -23 -34 -73 -50 -112 -17 -38 -35 -69 -40 -68 -6 2 -8 -4 -5 -12 6 -13
-69 -183 -104 -235 -9 -14 -26 -52 -38 -85 -35 -99 -117 -264 -127 -258 -6 3
-7 1 -3 -5 7 -11 -13 -62 -24 -62 -7 0 -33 -55 -36 -75 0 -5 -2 -16 -2 -23 -1
-7 -7 -10 -14 -6 -6 4 -8 3 -5 -4 9 -14 -3 -43 -14 -36 -9 5 -13 -17 -10 -45
2 -8 -2 -10 -10 -5 -9 5 -10 2 -6 -10 9 -22 -30 -99 -45 -90 -8 5 -9 2 -5 -9
4 -10 1 -17 -6 -17 -9 0 -9 -2 0 -8 8 -5 9 -13 3 -22 -9 -13 -10 -13 -10 0 -1
8 -10 -2 -21 -23 -12 -23 -18 -47 -14 -60 4 -15 3 -18 -3 -9 -10 15 -82 -136
-82 -171 1 -26 29 -80 30 -57 0 9 6 5 15 -10 17 -29 19 -44 5 -35 -6 3 -7 -1
-4 -9 3 -9 10 -14 14 -11 12 7 61 -102 54 -120 -4 -9 -1 -15 8 -15 21 0 72
-121 56 -132 -10 -6 -9 -8 3 -8 18 0 37 -53 42 -116 4 -48 34 -91 60 -86 10 2
17 -3 17 -12 0 -9 11 -39 25 -68 28 -58 31 -76 11 -59 -11 9 -13 6 -13 -13 0
-22 2 -24 18 -15 16 8 23 2 49 -52 30 -63 39 -109 20 -109 -5 0 -10 7 -10 15
0 8 -5 15 -10 15 -6 0 -4 -13 5 -30 16 -30 35 -40 35 -18 0 19 15 -1 45 -60
15 -29 31 -55 36 -58 15 -9 10 -34 -6 -34 -22 0 -19 -8 15 -36 16 -14 35 -44
42 -67 7 -23 23 -57 35 -76 13 -19 23 -38 23 -43 0 -5 32 -84 70 -176 39 -91
80 -195 92 -231 20 -65 47 -113 34 -61 -3 14 -9 114 -12 222 -5 150 -3 202 6
213 13 15 6 50 -8 41 -5 -3 -7 14 -6 37 1 29 7 43 18 45 13 3 16 -15 19 -130
l3 -133 2 153 2 152 -47 28 c-122 70 -204 182 -198 270 l3 47 -13 -54 c-8 -30
-11 -59 -9 -63 3 -4 -4 -8 -14 -8 -12 0 -24 11 -30 28 -48 124 -60 160 -57
182 1 14 -2 34 -8 45 -6 11 -12 34 -14 52 l-3 32 38 -13 c37 -13 38 -13 40 10
1 13 -2 24 -7 24 -11 0 -32 74 -26 91 2 8 -9 23 -27 34 -32 20 -54 55 -27 41
8 -4 6 -1 -3 7 -10 8 -18 21 -18 30 0 9 -4 19 -10 22 -5 3 -10 16 -10 29 0 12
-4 26 -9 32 -11 11 -43 116 -37 121 2 3 7 -6 11 -19 37 -124 117 -206 279
-283 76 -37 123 -66 140 -88 63 -80 58 -77 52 -22 -5 49 -5 50 9 20 8 -16 14
-39 15 -50 0 -18 2 -17 13 5 10 18 20 24 40 23 35 -2 27 10 -15 28 -18 7 -47
25 -65 40 -17 15 -61 37 -97 49 -155 51 -207 87 -296 201 -42 54 -45 66 -4 20
71 -82 118 -122 166 -143 26 -11 53 -27 59 -34 9 -11 25 -13 58 -9 27 4 41 3
34 -2 -13 -9 19 -29 87 -54 98 -35 200 -124 256 -222 l24 -42 -6 40 c-3 22 -2
35 3 30 4 -6 21 -19 37 -29 35 -22 28 -10 -33 63 -40 47 -48 65 -67 150 -15
65 -19 103 -13 119 5 13 9 40 9 61 0 35 2 38 25 33 14 -2 23 -8 20 -12 -2 -4
4 -16 13 -26 10 -10 22 -28 26 -39 5 -12 10 -15 13 -8 4 12 -8 38 -57 113 -31
50 -39 77 -12 44 9 -11 34 -40 55 -65 l39 -44 -7 40 c-13 79 -26 115 -40 115
-7 0 -17 9 -20 20 -3 11 -12 20 -19 20 -7 0 -19 15 -27 33 -8 17 -20 31 -27
29 -6 -1 -12 4 -12 10 0 24 -63 157 -72 152 -4 -3 -6 -10 -2 -15 3 -5 0 -8 -7
-7 -13 3 -15 -3 -18 -44 -1 -22 -1 -22 -28 4 -18 16 -37 24 -53 23 -14 -2 -42
8 -62 21 -21 13 -40 24 -43 24 -3 0 5 -19 19 -42 13 -24 27 -54 31 -68 l7 -25
-20 21 c-11 11 -23 30 -26 41 -4 12 -14 27 -23 35 -15 12 -15 11 -5 -9 7 -12
12 -36 12 -53 0 -26 -6 -33 -35 -46 -75 -31 -188 -12 -231 39 -25 30 -26 35
-21 112 4 44 15 106 27 137 11 32 20 63 20 69 0 27 42 149 56 164 23 22 68 18
125 -11 88 -47 79 -17 -44 139 -35 45 -37 99 -7 215 11 46 18 93 15 105 -5 17
-4 19 4 7 10 -13 11 -13 11 0 0 8 3 26 7 39 4 17 3 22 -6 17 -8 -6 -10 -1 -6
16 3 12 18 82 35 153 16 72 39 164 50 205 11 41 30 113 42 159 27 101 50 123
94 95 l27 -18 -7 39 c-4 22 -11 67 -15 100 -4 33 -9 56 -11 50 -1 -5 -5 6 -9
25 l-6 35 -25 -34z m-144 -398 c-8 -15 -15 -25 -16 -21 0 12 23 58 27 54 3 -2
-2 -17 -11 -33z m-32 -84 c-24 -62 -50 -90 -30 -32 18 52 36 86 42 80 3 -2 -3
-24 -12 -48z m-407 -1326 c21 -61 101 -271 129 -338 18 -44 40 -102 50 -130 9
-27 24 -67 34 -87 10 -21 14 -38 9 -38 -14 0 -64 60 -65 79 -1 9 -2 28 -3 44
0 17 -7 27 -16 27 -8 0 -15 9 -15 19 0 11 -4 22 -9 26 -5 3 -13 19 -16 37 -4
17 -16 45 -26 62 -10 17 -19 37 -19 44 0 7 -9 33 -20 58 -12 25 -18 54 -15 65
4 10 2 19 -3 19 -5 0 -14 25 -21 55 -7 30 -20 59 -29 65 -15 8 -14 9 6 10 13
0 25 -8 29 -17z m179 1 c-3 -8 -2 -12 4 -9 6 3 10 1 10 -5 0 -11 -28 -26 -34
-19 -2 2 -7 14 -10 27 -6 18 -4 22 14 22 16 0 20 -4 16 -16z m4 -54 c0 -5 -2
-10 -4 -10 -3 0 -8 5 -11 10 -3 6 -1 10 4 10 6 0 11 -4 11 -10z m78 -21 c16
-23 101 -49 158 -49 51 0 91 14 122 42 13 13 22 17 22 9 0 -21 -57 -68 -91
-75 -50 -10 -153 -7 -190 5 -46 16 -74 43 -77 74 -2 23 1 25 21 19 12 -4 28
-15 35 -25z m122 -9 c13 -9 13 -10 0 -9 -8 0 -24 4 -35 9 l-20 9 20 0 c11 0
27 -4 35 -9z m-22 -106 c40 -9 87 -13 105 -10 18 4 40 8 49 9 10 2 29 14 43
27 23 22 25 22 25 4 -1 -40 -55 -78 -127 -90 -81 -13 -221 50 -267 121 -15 23
-12 22 41 -10 33 -20 89 -42 131 -51z m210 -99 c-3 -3 -9 2 -12 12 -6 14 -5
15 5 6 7 -7 10 -15 7 -18z m-48 -45 c18 -12 2 -12 -25 0 -13 6 -15 9 -5 9 8 0
22 -4 30 -9z m-37 -77 c-7 -2 -19 -2 -25 0 -7 3 -2 5 12 5 14 0 19 -2 13 -5z
m-296 -189 c-3 -3 -12 -4 -19 -1 -8 3 -5 6 6 6 11 1 17 -2 13 -5z m165 -388
c4 -6 8 -17 8 -23 0 -23 -18 -14 -33 16 -13 27 -13 29 2 23 9 -3 19 -10 23
-16z m102 -162 c3 -8 2 -12 -4 -9 -6 3 -10 0 -10 -7 0 -9 -3 -9 -10 2 -14 21
-12 30 4 30 8 0 17 -7 20 -16z m66 -26 c0 -6 -6 -5 -15 2 -8 7 -15 14 -15 16
0 2 7 1 15 -2 8 -4 15 -11 15 -16z m-60 -64 c0 -8 -4 -12 -10 -9 -5 3 -10 10
-10 16 0 5 5 9 10 9 6 0 10 -7 10 -16z m30 -159 c0 -8 -2 -15 -4 -15 -2 0 -6
7 -10 15 -3 8 -1 15 4 15 6 0 10 -7 10 -15z"/>
<path d="M2553 4379 c-6 -6 -8 -28 -5 -51 4 -30 2 -39 -6 -34 -7 4 -13 15 -13
24 -2 27 -17 -39 -18 -81 -1 -35 0 -37 20 -27 16 9 26 8 45 -5 13 -8 24 -20
24 -26 0 -6 3 -8 8 -5 11 6 9 -76 -2 -93 -6 -10 -5 -12 2 -7 17 10 26 -15 67
-179 26 -104 35 -161 31 -187 -5 -29 -3 -36 7 -32 13 5 34 -47 43 -101 2 -11
15 -63 29 -115 14 -52 28 -120 30 -150 l4 -55 -13 40 -13 40 -5 -62 c-3 -48
-10 -69 -29 -89 -13 -15 -18 -24 -12 -20 9 5 11 2 7 -8 -3 -9 -9 -14 -13 -11
-10 6 -52 -51 -44 -59 4 -3 32 -6 64 -6 31 0 64 -3 73 -6 8 -3 25 -36 37 -72
12 -37 25 -71 29 -76 5 -5 6 -14 4 -21 -3 -7 4 -34 16 -60 12 -26 19 -56 17
-66 -3 -11 -2 -17 2 -14 4 2 8 -32 10 -77 2 -80 1 -80 -34 -114 -41 -38 -80
-48 -167 -42 -97 7 -120 53 -66 132 12 17 15 25 8 19 -19 -18 -31 -16 -24 2 4
8 3 15 -2 15 -9 0 -97 -51 -104 -60 -3 -4 -25 -7 -50 -6 -39 1 -50 -3 -79 -32
-18 -18 -40 -32 -48 -30 -8 2 -28 28 -45 58 -32 58 -97 137 -110 132 -5 -1 -7
4 -5 10 1 7 -5 12 -13 10 -8 -2 -12 0 -8 3 4 4 -5 23 -20 43 -21 27 -27 47
-27 83 0 52 14 73 79 120 48 36 39 37 -18 4 -37 -21 -46 -23 -68 -13 l-26 12
31 23 c17 13 44 23 60 23 15 0 26 4 23 9 -3 5 28 25 70 45 42 20 91 48 110 62
21 16 34 21 34 13 0 -19 46 28 64 66 20 42 20 105 1 153 -18 42 -92 113 -144
138 -19 9 -46 27 -60 40 -24 22 -24 24 -7 43 17 19 17 19 -3 14 -20 -5 -21 -4
-10 21 7 15 23 29 36 32 47 12 22 25 -36 18 -33 -3 -76 -3 -96 0 -31 6 -40 14
-55 49 -10 23 -24 65 -31 92 -15 62 -23 72 -43 52 -16 -16 -22 -32 -8 -24 4 3
8 -29 10 -72 3 -65 1 -73 -10 -58 -12 15 -13 13 -15 -21 -1 -21 -12 -61 -24
-88 -12 -27 -21 -59 -21 -71 1 -13 -2 -23 -6 -23 -5 0 -14 -22 -21 -50 -12
-49 -8 -76 10 -65 12 8 11 -1 -3 -24 -8 -13 -9 -29 -2 -52 l10 -34 22 25 c11
14 35 42 53 63 17 21 52 49 76 64 39 23 52 25 111 21 39 -3 59 -2 47 3 -11 4
-43 8 -71 8 -61 1 -118 -31 -181 -103 -24 -27 -44 -42 -48 -36 -7 11 42 72 91
113 46 39 113 64 158 61 82 -7 195 -61 180 -85 -3 -6 3 -13 14 -16 11 -2 25
-16 31 -29 14 -31 14 -47 1 -39 -5 3 -10 0 -10 -7 -1 -7 -7 1 -14 17 -7 17
-26 41 -42 55 l-29 25 21 -25 c34 -40 44 -66 44 -113 0 -35 -7 -51 -35 -85
-20 -22 -59 -52 -88 -67 -28 -14 -43 -23 -32 -21 11 3 27 1 34 -4 12 -7 10
-10 -10 -14 -63 -13 -90 -15 -84 -7 3 5 -4 7 -15 4 -11 -3 -18 -8 -15 -12 2
-4 -22 -19 -53 -34 -79 -37 -148 -106 -157 -158 -9 -51 1 -61 67 -68 3 -1 9
-14 13 -31 4 -16 28 -63 55 -104 27 -42 55 -88 63 -103 16 -32 20 -93 6 -93
-5 0 -9 5 -9 10 0 6 -9 10 -20 10 -11 0 -20 -5 -20 -11 0 -5 5 -7 10 -4 6 3
10 1 10 -5 0 -12 24 -40 35 -40 3 0 3 4 0 10 -3 6 -2 10 4 10 13 0 16 -15 42
-165 19 -113 18 -110 34 -89 19 25 19 12 0 -33 -8 -19 -15 -44 -15 -54 0 -11
-5 -19 -11 -19 -18 0 -4 -23 15 -26 27 -4 29 -10 10 -28 -17 -17 -16 -77 3
-199 l6 -39 28 49 c33 56 38 51 9 -10 -31 -64 -40 -110 -23 -126 8 -7 12 -19
9 -27 -3 -8 1 -14 11 -14 20 0 53 -38 47 -55 -3 -7 2 -15 10 -18 20 -8 21 -56
1 -93 -8 -15 -12 -31 -8 -34 3 -3 8 1 10 8 3 6 9 12 14 12 6 0 8 -3 5 -8 -2
-4 0 -23 5 -42 9 -36 9 -37 -7 232 -8 129 4 182 51 228 38 37 66 36 76 0 4
-15 7 -18 8 -8 1 9 6 20 12 24 9 5 10 -1 5 -20 -7 -30 9 -36 19 -7 6 21 111
121 126 121 15 0 10 -10 -18 -36 l-28 -25 39 26 c21 14 43 25 47 25 13 0 29
-36 29 -68 0 -24 7 -32 44 -50 58 -29 65 -28 31 8 -16 17 -25 31 -19 32 5 0
14 2 19 3 6 0 21 5 35 10 l25 8 -23 8 c-12 5 -22 13 -22 19 0 16 40 12 46 -5
9 -21 19 -19 32 8 7 14 11 16 12 7 1 -18 30 46 54 118 10 28 22 52 27 52 13 0
14 4 -52 -161 -44 -110 -59 -159 -54 -177 5 -20 1 -30 -17 -44 -19 -15 -20
-18 -5 -18 9 0 17 -4 17 -10 0 -5 -7 -10 -15 -10 -12 0 -13 -4 -3 -26 10 -22
9 -28 -17 -50 -15 -13 -39 -24 -52 -24 -19 0 -23 -5 -23 -33 0 -54 -119 -198
-197 -239 -31 -16 -47 -58 -23 -58 7 0 10 -51 9 -140 -1 -146 3 -169 26 -150
8 7 19 9 25 5 6 -4 23 -2 38 4 27 11 62 73 100 175 8 22 21 51 31 65 22 35 40
91 34 107 -3 8 0 14 6 14 6 0 11 7 11 16 0 9 6 28 14 42 7 15 28 61 47 102 18
41 40 82 47 90 13 13 14 11 9 -17 -4 -18 -4 -33 -2 -33 3 0 16 22 29 49 22 43
23 50 11 69 -13 18 -11 28 27 108 31 68 43 84 48 70 6 -18 7 -18 13 -3 3 9 2
17 -3 17 -17 0 -11 27 20 87 16 32 40 81 52 108 14 33 23 44 25 33 4 -14 7
-15 16 -5 19 19 44 69 51 101 4 15 14 35 21 43 8 8 17 26 21 41 5 28 34 93 45
102 14 12 36 88 33 115 -6 62 -13 89 -31 114 -31 42 -38 55 -25 47 16 -10 15
-1 -1 16 -7 7 -39 74 -71 148 -83 193 -128 290 -136 290 -7 0 -37 65 -71 155
-21 56 -39 97 -149 333 -24 50 -47 92 -51 92 -10 0 -29 57 -21 66 4 4 1 4 -7
-1 -11 -6 -13 -3 -9 13 4 12 2 20 -2 17 -5 -3 -12 9 -15 27 -4 18 -30 80 -56
137 -27 57 -49 107 -49 112 0 5 -4 9 -10 9 -5 0 -10 7 -10 15 0 20 -77 180
-93 193 -10 8 -17 8 -24 1z m67 -134 c0 -5 -5 -3 -10 5 -5 8 -10 20 -10 25 0
6 5 3 10 -5 5 -8 10 -19 10 -25z m78 -180 c39 -88 84 -189 100 -225 16 -36 33
-75 37 -88 6 -22 5 -22 -14 -10 -11 7 -20 17 -19 23 2 5 -6 30 -16 55 -11 25
-27 65 -36 90 -10 25 -40 97 -67 160 -50 114 -71 170 -60 160 3 -3 37 -77 75
-165z m-8 -90 c68 -195 152 -444 194 -570 19 -55 41 -117 50 -137 9 -20 12
-39 7 -43 -5 -3 -12 1 -14 7 -4 10 -7 10 -14 1 -6 -8 -22 31 -47 110 -20 67
-44 136 -52 152 -7 17 -16 43 -18 58 -3 16 -9 34 -14 40 -4 7 -14 37 -22 67
-7 30 -22 82 -32 115 -11 33 -31 103 -44 155 -14 52 -32 114 -40 138 -13 41
-18 70 -10 61 2 -2 27 -71 56 -154z m-595 -175 c3 -5 1 -10 -4 -10 -6 0 -11 5
-11 10 0 6 2 10 4 10 3 0 8 -4 11 -10z m15 -95 c-7 -8 -17 -15 -22 -15 -6 0
-5 7 2 15 7 8 17 15 22 15 6 0 5 -7 -2 -15z m80 -16 c0 -8 -62 -18 -73 -12 -4
2 -5 8 -3 12 6 9 76 9 76 0z m-110 -26 c-1 -25 -14 -53 -26 -53 -8 0 -14 -4
-14 -10 0 -5 -4 -10 -9 -10 -6 0 0 18 11 40 20 36 38 52 38 33z m864 -159 c3
-8 2 -12 -4 -9 -6 3 -10 10 -10 16 0 14 7 11 14 -7z m26 -59 c0 -5 -5 -3 -10
5 -5 8 -10 20 -10 25 0 6 5 3 10 -5 5 -8 10 -19 10 -25z m20 -50 c0 -5 -5 -3
-10 5 -5 8 -10 20 -10 25 0 6 5 3 10 -5 5 -8 10 -19 10 -25z m70 -133 c7 -20
19 -47 26 -60 8 -12 19 -33 24 -47 9 -23 8 -24 -10 -13 -11 7 -15 15 -10 18 6
4 3 15 -7 26 -10 10 -24 37 -32 59 -8 22 -16 46 -19 54 -3 9 -1 12 6 8 6 -4
16 -24 22 -45z m-90 -88 c0 -8 -4 -12 -10 -9 -5 3 -10 13 -10 21 0 8 5 12 10
9 6 -3 10 -13 10 -21z m-39 -38 c5 3 9 0 9 -6 0 -15 -23 -7 -26 8 -1 7 0 8 3
2 2 -5 9 -8 14 -4z m36 -18 c-3 -7 -5 -2 -5 12 0 14 2 19 5 13 2 -7 2 -19 0
-25z m-7 -83 c0 -9 -6 -12 -15 -9 -8 4 -15 10 -15 15 0 5 7 9 15 9 8 0 15 -7
15 -15z m31 -49 c-8 -10 -7 -17 4 -26 10 -8 13 -20 9 -33 -5 -16 -3 -19 10
-14 13 5 15 2 10 -21 -4 -15 -12 -31 -19 -37 -6 -5 -10 -17 -7 -25 3 -11 2
-12 -7 -4 -7 6 -14 31 -16 55 -2 24 -10 63 -19 87 -14 40 -14 43 2 40 12 -2
18 5 21 22 l4 25 9 -28 c7 -19 6 -32 -1 -41z m191 7 c12 -27 24 -52 27 -58 2
-5 -5 -2 -16 8 -12 10 -23 28 -26 40 -2 12 -8 30 -12 40 -4 9 -4 17 -1 17 4 0
16 -21 28 -47z m49 -115 c6 -10 4 -18 -4 -21 -9 -3 -13 6 -14 32 0 20 2 29 5
21 2 -8 9 -22 13 -32z m-181 -27 c0 -5 -7 -11 -15 -15 -15 -5 -20 5 -8 17 9
10 23 9 23 -2z m228 -67 c13 -26 21 -48 18 -51 -2 -3 -12 12 -22 32 -9 20 -23
39 -31 42 -17 7 -17 23 0 23 7 0 23 -21 35 -46z m-185 -6 c19 -26 67 -142 67
-162 0 -2 -8 -6 -18 -8 -14 -4 -22 3 -31 28 -7 19 -18 39 -24 46 -19 20 -47
98 -40 114 8 22 20 17 46 -18z m-69 -54 c3 -8 2 -12 -4 -9 -6 3 -10 10 -10 16
0 14 7 11 14 -7z m119 -190 c-21 -48 -22 -48 -28 -42 -3 2 4 24 16 47 25 53
37 48 12 -5z m-486 -50 c58 -23 183 -14 220 16 33 26 41 25 41 -4 0 -20 -9
-28 -42 -41 -49 -20 -157 -23 -209 -6 -39 13 -77 53 -76 80 0 11 3 10 11 -6 6
-12 31 -30 55 -39z m286 -41 c-58 -70 -92 -89 -167 -97 -100 -10 -142 0 -187
46 -21 22 -39 43 -39 47 0 20 15 18 42 -4 44 -37 102 -50 174 -37 75 12 181
58 195 84 6 11 13 17 16 14 4 -3 -12 -27 -34 -53z m340 -58 c-22 -17 -30 -11
-13 10 7 8 17 12 22 9 5 -3 1 -12 -9 -19z m-222 -62 c-12 -20 -14 -14 -5 12 4
9 9 14 11 11 3 -2 0 -13 -6 -23z m-694 -170 c-2 -32 -3 -8 -3 52 0 61 1 87 3
58 2 -29 2 -78 0 -110z m678 118 c-3 -12 -10 -21 -15 -21 -5 0 -4 11 2 25 13
29 23 26 13 -4z m185 -11 c0 -5 -5 -10 -11 -10 -5 0 -7 5 -4 10 3 6 8 10 11
10 2 0 4 -4 4 -10z m-271 -62 c-8 -16 -14 -19 -17 -9 -2 7 2 24 9 39 11 19 15
21 17 9 2 -9 -2 -26 -9 -39z m-109 18 c0 -2 -20 -16 -43 -30 -41 -24 -66 -34
-177 -72 -25 -9 -56 -26 -70 -39 -14 -12 -41 -30 -60 -40 -19 -9 -50 -31 -68
-49 -25 -24 -32 -26 -26 -11 4 11 16 31 28 43 25 29 142 98 180 108 15 3 73
26 129 49 120 51 107 46 107 41z m50 -56 c0 -5 -2 -10 -4 -10 -3 0 -8 5 -11
10 -3 6 -1 10 4 10 6 0 11 -4 11 -10z m-73 -26 c-26 -14 -46 -28 -43 -33 3 -4
-9 -5 -26 -3 -31 5 -30 5 28 33 74 34 106 37 41 3z m68 -43 c-3 -6 -11 -11
-17 -11 -6 0 -6 6 2 15 14 17 26 13 15 -4z m-40 -11 c3 -5 -3 -10 -15 -10 -12
0 -18 5 -15 10 3 6 10 10 15 10 5 0 12 -4 15 -10z m-295 -44 c0 -3 -4 -8 -10
-11 -5 -3 -10 -1 -10 4 0 6 5 11 10 11 6 0 10 -2 10 -4z m385 -136 c3 -5 2
-10 -4 -10 -5 0 -13 5 -16 10 -3 6 -2 10 4 10 5 0 13 -4 16 -10z m65 -157 c0
-7 -7 -13 -15 -13 -16 0 -19 9 -9 35 5 13 8 14 15 3 5 -7 9 -19 9 -25z m-171
-127 c-17 -36 -35 -63 -40 -60 -10 6 7 55 24 69 7 6 18 23 25 39 7 16 15 26
18 24 3 -3 -9 -35 -27 -72z m-152 -288 c-3 -8 -6 -5 -6 6 -1 11 2 17 5 13 3
-3 4 -12 1 -19z"/>
<path d="M1878 4173 c-9 -10 -19 -31 -23 -48 l-6 -30 15 33 c8 17 22 33 31 33
31 3 35 4 38 14 4 18 -39 16 -55 -2z"/>
<path d="M2530 4181 c0 -5 7 -11 15 -15 8 -3 24 -20 35 -38 l21 -33 -7 30 c-8
40 -64 88 -64 56z"/>
<path d="M2340 3496 c0 -2 7 -7 16 -10 8 -3 12 -2 9 4 -6 10 -25 14 -25 6z"/>
<path d="M1141 2430 c14 -31 19 -36 19 -24 0 6 -7 19 -16 30 -14 18 -14 18 -3
-6z"/>
<path d="M3166 2108 c-15 -35 -31 -71 -37 -80 -5 -10 -9 -28 -8 -40 0 -23 1
-23 11 2 35 79 47 108 53 133 4 15 11 27 16 27 5 0 9 5 9 10 0 27 -20 3 -44
-52z"/>
<path d="M1613 2113 c26 -60 37 -78 37 -62 0 9 7 19 15 23 10 4 15 -1 15 -14
0 -25 9 -25 25 -3 11 15 17 15 41 5 23 -11 26 -11 16 1 -7 8 -34 22 -60 32
-26 10 -56 24 -67 32 -29 20 -36 16 -22 -14z"/>
<path d="M1780 2046 c0 -2 8 -10 18 -17 15 -13 16 -12 3 4 -13 16 -21 21 -21
13z"/>
<path d="M2150 2025 c0 -11 21 -35 54 -62 20 -17 26 -16 26 2 0 8 -4 15 -9 15
-5 0 -7 8 -5 18 4 12 -4 20 -31 28 -26 8 -35 8 -35 -1z"/>
<path d="M2609 1997 c-20 -15 -42 -57 -35 -65 3 -3 6 0 6 6 0 6 12 24 26 41
28 33 28 38 3 18z"/>
<path d="M1845 1976 c10 -14 19 -26 22 -26 7 0 -17 39 -28 46 -6 3 -3 -5 6
-20z"/>
<path d="M2089 1923 c24 -29 46 -53 48 -53 7 0 -54 75 -74 91 -10 8 2 -10 26
-38z"/>
<path d="M1540 1954 c1 -5 7 -20 15 -34 13 -24 14 -24 15 -4 0 12 -7 27 -15
34 -8 7 -15 9 -15 4z"/>
<path d="M2323 1648 c0 -27 1 -28 11 -10 6 10 17 17 25 14 8 -2 11 0 8 5 -4 6
-15 13 -25 15 -15 4 -19 0 -19 -24z"/>
<path d="M2915 1566 c-3 -9 -7 -23 -10 -31 -2 -8 0 -15 5 -15 11 0 25 48 16
57 -3 3 -8 -2 -11 -11z"/>
<path d="M2240 1498 c0 -72 -25 -132 -124 -298 -59 -99 -70 -140 -37 -140 12
0 34 28 71 93 29 50 67 115 85 142 49 74 85 146 79 156 -3 5 -18 9 -35 9 -26
0 -29 3 -29 31 0 28 2 31 25 25 32 -8 32 -5 -5 22 l-30 23 0 -63z"/>
<path d="M2866 1425 c-9 -26 -7 -32 5 -12 6 10 9 21 6 23 -2 3 -7 -2 -11 -11z"/>
<path d="M2550 1315 c0 -38 2 -66 4 -64 8 7 10 118 3 126 -4 3 -7 -24 -7 -62z"/>
<path d="M2174 1081 c-10 -17 -22 -28 -26 -25 -5 3 -16 3 -24 0 -12 -5 -13 -9
-2 -28 7 -13 11 -26 10 -30 -1 -5 2 -8 7 -8 9 0 41 -88 41 -112 0 -8 7 -23 15
-34 14 -18 14 -16 10 21 -3 22 -9 56 -15 75 -13 45 -13 126 0 151 17 31 3 22
-16 -10z"/>
<path d="M1893 1040 c0 -30 2 -43 4 -27 2 15 2 39 0 55 -2 15 -4 2 -4 -28z"/>
<path d="M2117 837 c7 -44 -18 -109 -54 -145 -13 -13 -23 -29 -23 -37 0 -8 -4
-15 -9 -15 -10 0 -36 -58 -29 -65 5 -6 160 205 162 221 0 7 -3 13 -9 14 -5 1
-18 15 -27 33 l-17 32 6 -38z"/>
<path d="M2070 575 c-7 -8 -20 -14 -29 -13 -12 2 -16 -6 -17 -32 0 -19 3 -37
6 -40 10 -8 55 -109 74 -165 28 -82 100 -238 112 -242 6 -2 14 4 18 13 8 21
28 152 28 177 -1 10 3 30 9 43 6 17 6 23 -1 19 -6 -3 -10 -3 -10 2 0 12 59 73
71 73 14 0 64 48 57 55 -3 3 -43 -13 -89 -35 -45 -22 -90 -40 -99 -40 -41 0
-78 23 -99 60 -22 39 -30 107 -17 129 10 16 0 13 -14 -4z m159 -377 l-2 -103
-7 72 c-4 39 -11 76 -14 82 -7 10 9 51 19 51 3 0 4 -46 4 -102z"/>
</g>
</svg>
